<svg width="1800" height="1200" viewBox="0 0 1800 1200" fill="none" xmlns="http://www.w3.org/2000/svg">
  <rect width="1800" height="1200" fill="#F3F1EB"/>
  <rect x="60" y="60" width="1680" height="1080" rx="40" fill="#F8F6F0" stroke="#D0D2C7" stroke-width="8"/>
  <path d="M120 868C362 722 560 682 784 700C1034 720 1210 826 1680 628V1080H120V868Z" fill="#E4E8DB"/>
  <path d="M120 944C378 824 620 802 890 840C1148 876 1360 926 1680 788V1080H120V944Z" fill="#CCD3C5"/>
  <ellipse cx="1334" cy="284" rx="98" ry="98" fill="#E7EBDF"/>
  <path d="M232 804C364 676 468 522 562 342" stroke="#71795F" stroke-width="16" stroke-linecap="round"/>
  <ellipse cx="434" cy="512" rx="126" ry="46" transform="rotate(-28 434 512)" fill="#7C8566"/>
  <ellipse cx="560" cy="396" rx="120" ry="44" transform="rotate(-48 560 396)" fill="#8B9273"/>
  <ellipse cx="686" cy="326" rx="108" ry="38" transform="rotate(12 686 326)" fill="#727A5E"/>
  <text x="900" y="1016" text-anchor="middle" fill="#60675D" font-family="Georgia, serif" font-size="48" letter-spacing="8">HISTORIA</text>
  <text x="900" y="1082" text-anchor="middle" fill="#71795F" font-family="Arial, sans-serif" font-size="24" letter-spacing="5">Replace with landscape, grove, or process context</text>
</svg>
