<svg width="1600" height="2000" viewBox="0 0 1600 2000" fill="none" xmlns="http://www.w3.org/2000/svg">
  <rect width="1600" height="2000" fill="#F3F1EB"/>
  <rect x="72" y="72" width="1456" height="1856" rx="56" fill="#F8F6F0" stroke="#D0D2C7" stroke-width="8"/>
  <path d="M220 1510C360 1290 520 1180 710 1170C970 1156 1145 1332 1380 1100V1730H220V1510Z" fill="#DDE2D3"/>
  <path d="M140 1668C298 1502 462 1410 668 1402C908 1392 1118 1480 1460 1280V1840H140V1668Z" fill="#C9D0C0"/>
  <ellipse cx="1080" cy="578" rx="238" ry="238" fill="#E8ECE0"/>
  <path d="M554 1134C640 960 706 754 792 580C898 784 948 932 1022 1108" stroke="#71795F" stroke-width="18" stroke-linecap="round"/>
  <path d="M706 918C626 858 570 780 544 684" stroke="#71795F" stroke-width="14" stroke-linecap="round"/>
  <path d="M838 840C924 784 996 702 1054 586" stroke="#71795F" stroke-width="14" stroke-linecap="round"/>
  <ellipse cx="642" cy="842" rx="84" ry="36" transform="rotate(-28 642 842)" fill="#8B9273"/>
  <ellipse cx="574" cy="736" rx="88" ry="34" transform="rotate(-54 574 736)" fill="#79815F"/>
  <ellipse cx="784" cy="752" rx="102" ry="38" transform="rotate(10 784 752)" fill="#8F9676"/>
  <ellipse cx="938" cy="734" rx="96" ry="36" transform="rotate(-24 938 734)" fill="#71795F"/>
  <ellipse cx="1046" cy="624" rx="86" ry="34" transform="rotate(-48 1046 624)" fill="#7E8667"/>
  <ellipse cx="874" cy="948" rx="102" ry="38" transform="rotate(22 874 948)" fill="#6B7458"/>
  <text x="800" y="1620" text-anchor="middle" fill="#60675D" font-family="Georgia, serif" font-size="56" letter-spacing="10">HOME HERO</text>
  <text x="800" y="1700" text-anchor="middle" fill="#71795F" font-family="Arial, sans-serif" font-size="28" letter-spacing="7">Replace with olive grove or landscape photography</text>
</svg>
